<?xml version="1.0" standalone="no"?><svg xmlns="http://www.w3.org/2000/svg" viewBox="0 0 1440 320"><path fill="#352F44" fill-opacity="1" d="M0,256L6.2,229.3C12.3,203,25,149,37,122.7C49.2,96,62,96,74,96C86.2,96,98,96,111,90.7C123.1,85,135,75,148,112C160,149,172,235,185,256C196.9,277,209,235,222,213.3C233.8,192,246,192,258,170.7C270.8,149,283,107,295,112C307.7,117,320,171,332,181.3C344.6,192,357,160,369,128C381.5,96,394,64,406,69.3C418.5,75,431,117,443,117.3C455.4,117,468,75,480,80C492.3,85,505,139,517,176C529.2,213,542,235,554,250.7C566.2,267,578,277,591,277.3C603.1,277,615,267,628,240C640,213,652,171,665,144C676.9,117,689,107,702,122.7C713.8,139,726,181,738,170.7C750.8,160,763,96,775,106.7C787.7,117,800,203,812,213.3C824.6,224,837,160,849,117.3C861.5,75,874,53,886,42.7C898.5,32,911,32,923,58.7C935.4,85,948,139,960,170.7C972.3,203,985,213,997,213.3C1009.2,213,1022,203,1034,170.7C1046.2,139,1058,85,1071,58.7C1083.1,32,1095,32,1108,64C1120,96,1132,160,1145,186.7C1156.9,213,1169,203,1182,192C1193.8,181,1206,171,1218,176C1230.8,181,1243,203,1255,229.3C1267.7,256,1280,288,1292,250.7C1304.6,213,1317,107,1329,96C1341.5,85,1354,171,1366,176C1378.5,181,1391,107,1403,74.7C1415.4,43,1428,53,1434,58.7L1440,64L1440,0L1433.8,0C1427.7,0,1415,0,1403,0C1390.8,0,1378,0,1366,0C1353.8,0,1342,0,1329,0C1316.9,0,1305,0,1292,0C1280,0,1268,0,1255,0C1243.1,0,1231,0,1218,0C1206.2,0,1194,0,1182,0C1169.2,0,1157,0,1145,0C1132.3,0,1120,0,1108,0C1095.4,0,1083,0,1071,0C1058.5,0,1046,0,1034,0C1021.5,0,1009,0,997,0C984.6,0,972,0,960,0C947.7,0,935,0,923,0C910.8,0,898,0,886,0C873.8,0,862,0,849,0C836.9,0,825,0,812,0C800,0,788,0,775,0C763.1,0,751,0,738,0C726.2,0,714,0,702,0C689.2,0,677,0,665,0C652.3,0,640,0,628,0C615.4,0,603,0,591,0C578.5,0,566,0,554,0C541.5,0,529,0,517,0C504.6,0,492,0,480,0C467.7,0,455,0,443,0C430.8,0,418,0,406,0C393.8,0,382,0,369,0C356.9,0,345,0,332,0C320,0,308,0,295,0C283.1,0,271,0,258,0C246.2,0,234,0,222,0C209.2,0,197,0,185,0C172.3,0,160,0,148,0C135.4,0,123,0,111,0C98.5,0,86,0,74,0C61.5,0,49,0,37,0C24.6,0,12,0,6,0L0,0Z"></path></svg>